<svg xmlns="http://www.w3.org/2000/svg" width="54.132" height="46.808" viewBox="0 0 54.132 46.808">
  <g id="logo_symbol" transform="translate(0 0.04)">
    <path id="Path_895" data-name="Path 895" d="M158.715,201.381a9.4,9.4,0,0,1,5.818,5.029l6.44,13.992-14.811-4.381a9.427,9.427,0,0,1-5.818-5L143.9,197Z" transform="translate(-137.977 -176.762)" fill="#dee0e1"/>
    <path id="Path_896" data-name="Path 896" d="M207,208.5a9.4,9.4,0,0,1,5.8,5.033l6.444,14-14.815-4.381a9.375,9.375,0,0,1-5.8-5.033l-6.444-14Z" transform="translate(-165.107 -180.763)" fill="#dee0e1"/>
    <path id="Path_897" data-name="Path 897" d="M145.2,155.091a9.427,9.427,0,0,1,5.8,5.038l6.44,13.992L142.62,169.74a9.427,9.427,0,0,1-5.8-5.038l-6.44-13.992Z" transform="translate(-130.38 -150.75)" fill="#dee0e1"/>
    <path id="Path_898" data-name="Path 898" d="M200.958,221.3a9.558,9.558,0,0,1-2.374-3.15l-6.444-14,27.059,23.4-14.815-4.381A9.5,9.5,0,0,1,200.958,221.3Z" transform="translate(-165.085 -180.78)" fill="#dee0e1"/>
    <path id="Path_899" data-name="Path 899" d="M193.794,162.123a9.427,9.427,0,0,1,5.8,5.038l6.444,13.992-14.815-4.381a9.4,9.4,0,0,1-5.8-5.038L179,157.76Z" transform="translate(-157.701 -154.712)" fill="#dee0e1"/>
    <path id="Path_900" data-name="Path 900" d="M187.8,174.9a9.471,9.471,0,0,1-2.374-3.15L179,157.76l27.059,23.393-14.815-4.381A9.545,9.545,0,0,1,187.8,174.9Z" transform="translate(-157.701 -154.712)" fill="#dee0e1"/>
    <path id="Path_901" data-name="Path 901" d="M152.705,214.15a9.559,9.559,0,0,1-2.374-3.15L143.9,197l27.059,23.4-14.815-4.381a9.511,9.511,0,0,1-3.439-1.866Z" transform="translate(-137.977 -176.762)" fill="#dee0e1"/>
    <path id="Path_902" data-name="Path 902" d="M139.2,167.892a9.571,9.571,0,0,1-2.379-3.15l-6.44-13.992,27.055,23.393-14.815-4.381a9.528,9.528,0,0,1-3.421-1.871Z" transform="translate(-130.38 -150.772)" fill="#dee0e1"/>
  </g>
</svg>
